<svg xmlns="http://www.w3.org/2000/svg" viewBox="0 0 24 24">
  <defs>
    <linearGradient id="regenbogen" x1="0" y1="0" x2="0" y2="1">
      <stop offset="0%" stop-color="#e40303" />
      <stop offset="16.67%" stop-color="#e40303" />
      <stop offset="16.67%" stop-color="#ff8c00" />
      <stop offset="33.33%" stop-color="#ff8c00" />
      <stop offset="33.33%" stop-color="#ffed00" />
      <stop offset="50%" stop-color="#ffed00" />
      <stop offset="50%" stop-color="#008026" />
      <stop offset="66.67%" stop-color="#008026" />
      <stop offset="66.67%" stop-color="#004dff" />
      <stop offset="83.33%" stop-color="#004dff" />
      <stop offset="83.33%" stop-color="#750787" />
      <stop offset="100%" stop-color="#750787" />
    </linearGradient>
  </defs>
  <path d="m21.47 4.35-1.34-.56v9.03l2.43-5.86c.41-1.02-.06-2.19-1.09-2.61m-19.5 3.7L6.93 20a2.01 2.01 0 0 0 1.81 1.26c.26 0 .53-.05.79-.16l7.37-3.05c.75-.31 1.21-1.05 1.23-1.79.01-.26-.04-.55-.13-.81L13 3.5a1.95 1.95 0 0 0-1.81-1.25c-.26 0-.52.06-.77.15L3.06 5.45a1.994 1.994 0 0 0-1.09 2.6m16.15-3.8a2 2 0 0 0-2-2h-1.45l3.45 8.34"
        fill="url(#regenbogen)"/>
</svg>
